<svg width="228" height="186" viewBox="0 0 228 186" fill="none" xmlns="http://www.w3.org/2000/svg">
<g id="Frame 27086">
<g id="Group 1">
<rect id="Divuarts" x="35.6103" y="85.7139" width="212.205" height="133.506" rx="38.6465" transform="rotate(15 35.6103 85.7139)" fill="url(#paint0_radial_24_1261)" stroke="url(#paint1_linear_24_1261)" stroke-width="1.40533"/>
<rect id="Divuarts_2" x="85.9945" y="79.5732" width="146.154" height="140.533" rx="16.8639" transform="rotate(15 85.9945 79.5732)" fill="url(#paint2_angular_24_1261)"/>
<g id="Divuarts_3" filter="url(#filter0_b_24_1261)">
<rect x="75.0194" y="22.801" width="168.639" height="168.639" rx="33.7279" transform="rotate(15 75.0194 22.801)" fill="url(#paint3_radial_24_1261)"/>
<rect x="75.5163" y="23.6616" width="167.234" height="167.234" rx="33.0252" transform="rotate(15 75.5163 23.6616)" stroke="url(#paint4_radial_24_1261)" stroke-width="1.40533"/>
</g>
<rect id="Divuarts_4" x="84.3723" y="74.7736" width="33.7279" height="33.7279" transform="rotate(15 84.3723 74.7736)" fill="white"/>
<rect id="Divuarts_5" x="72.7336" y="118.212" width="33.7279" height="33.7279" transform="rotate(15 72.7336 118.212)" fill="white"/>
<rect id="Divuarts_6" x="127.81" y="86.4124" width="33.7279" height="33.7279" transform="rotate(15 127.81 86.4124)" fill="white"/>
<rect id="Divuarts_7" x="116.17" y="129.851" width="33.7279" height="33.7279" transform="rotate(15 116.17 129.851)" fill="white"/>
<rect id="Divuarts_8" x="170.254" y="96.3307" width="36.5385" height="36.5385" rx="18.2693" transform="rotate(15 170.254 96.3307)" fill="#FFEB00"/>
<rect id="Divuarts_9" x="159.61" y="141.49" width="33.7279" height="33.7279" transform="rotate(15 159.61 141.49)" fill="white"/>
<rect id="Divuarts_10" x="116.035" y="16.3319" width="19.6746" height="30.9172" rx="9.8373" transform="rotate(15 116.035 16.3319)" fill="white"/>
<rect id="Divuarts_11" x="186.622" y="35.2455" width="19.6746" height="30.9172" rx="9.8373" transform="rotate(15 186.622 35.2455)" fill="white"/>
</g>
</g>
<defs>
<filter id="filter0_b_24_1261" x="20.0589" y="11.4876" width="229.167" height="229.167" filterUnits="userSpaceOnUse" color-interpolation-filters="sRGB">
<feFlood flood-opacity="0" result="BackgroundImageFix"/>
<feGaussianBlur in="BackgroundImageFix" stdDeviation="9.5502"/>
<feComposite in2="SourceAlpha" operator="in" result="effect1_backgroundBlur_24_1261"/>
<feBlend mode="normal" in="SourceGraphic" in2="effect1_backgroundBlur_24_1261" result="shape"/>
</filter>
<radialGradient id="paint0_radial_24_1261" cx="0" cy="0" r="1" gradientUnits="userSpaceOnUse" gradientTransform="translate(235.761 95.7719) rotate(150.576) scale(181.848 156.621)">
<stop stop-color="#FFD527"/>
<stop offset="1" stop-color="#08C118"/>
</radialGradient>
<linearGradient id="paint1_linear_24_1261" x1="189.428" y1="58.7545" x2="91.5903" y2="150.144" gradientUnits="userSpaceOnUse">
<stop stop-color="white" stop-opacity="0.598635"/>
<stop offset="1" stop-color="white" stop-opacity="0.01"/>
</linearGradient>
<radialGradient id="paint2_angular_24_1261" cx="0" cy="0" r="1" gradientUnits="userSpaceOnUse" gradientTransform="translate(159.072 149.84) scale(73.0771 70.2664)">
<stop stop-color="#00B437" stop-opacity="0.334782"/>
<stop offset="1" stop-color="#FFE013"/>
</radialGradient>
<radialGradient id="paint3_radial_24_1261" cx="0" cy="0" r="1" gradientUnits="userSpaceOnUse" gradientTransform="translate(232.875 31.9015) rotate(126.776) scale(160.59)">
<stop stop-color="white" stop-opacity="0.700689"/>
<stop offset="1" stop-color="#F8FFF8" stop-opacity="0.246825"/>
</radialGradient>
<radialGradient id="paint4_radial_24_1261" cx="0" cy="0" r="1" gradientUnits="userSpaceOnUse" gradientTransform="translate(232.598 38.4875) rotate(124.151) scale(141.273 136.018)">
<stop stop-color="white"/>
<stop offset="1" stop-color="white" stop-opacity="0.01"/>
</radialGradient>
</defs>
</svg>
