<svg width="382" height="173" viewBox="0 0 382 173" fill="none" xmlns="http://www.w3.org/2000/svg">
<g id="Frame 27088">
<g id="Group 2">
<path id="Divuarts" d="M209.858 46.4744C212.414 34.7308 224.362 27.5911 235.915 30.9039L376.139 71.1125C387.692 74.4252 394.041 86.8116 389.985 98.1252L341.225 234.149C337.525 244.469 326.451 250.146 315.912 247.124L193.718 212.085C183.18 209.064 176.796 198.381 179.128 187.668L209.858 46.4744Z" fill="url(#paint0_radial_24_1276)" stroke="url(#paint1_linear_24_1276)" stroke-width="1.34192"/>
<path id="Divuarts_2" fill-rule="evenodd" clip-rule="evenodd" d="M255.448 11.6253C260.368 3.06825 270.49 -1.03115 279.978 1.68968L394.626 34.5645L336.027 136.467L205.225 98.9602L255.448 11.6253Z" fill="white"/>
<path id="Divuarts_3" fill-rule="evenodd" clip-rule="evenodd" d="M281.265 30.548L357.315 52.3549L349.264 65.8737L273.214 44.0668L281.265 30.548Z" fill="#FFDAFE"/>
<path id="Divuarts_4" fill-rule="evenodd" clip-rule="evenodd" d="M265.968 56.2341L317.155 70.9117L309.104 84.4305L257.917 69.7528L265.968 56.2341Z" fill="#FFDAFE"/>
<g id="Divuarts_5" filter="url(#filter0_b_24_1276)">
<path fill-rule="evenodd" clip-rule="evenodd" d="M190.556 68.1231C193.086 55.8874 205.489 48.3883 217.5 51.8323L236.194 57.1928L268.175 66.3633C273.896 68.0036 278.679 71.9449 281.384 77.2463L301.274 116.241C303.978 121.542 308.761 125.483 314.482 127.124L346.463 136.294L364.487 141.462C376.74 144.976 383.252 158.329 378.475 170.147L351.085 237.91C346.967 248.097 335.823 253.531 325.261 250.503L181.632 209.318C170.836 206.222 164.25 195.329 166.524 184.331L190.556 68.1231Z" fill="url(#paint2_radial_24_1276)"/>
<path d="M191.213 68.259C193.664 56.4057 205.68 49.1409 217.315 52.4772L236.009 57.8378L267.991 67.0082C273.533 68.5974 278.166 72.4154 280.786 77.5512L300.676 116.545C303.465 122.012 308.397 126.077 314.297 127.769L346.278 136.939L364.302 142.107C376.173 145.511 382.481 158.447 377.853 169.896L350.463 237.659C346.474 247.527 335.678 252.792 325.446 249.858L181.817 208.673C171.358 205.674 164.978 195.121 167.182 184.467L191.213 68.259Z" stroke="url(#paint3_radial_24_1276)" stroke-width="1.34192"/>
</g>
<rect id="Divuarts_6" x="211.311" y="72.2159" width="57.8143" height="15.2143" rx="6.70958" transform="rotate(16 211.311 72.2159)" fill="white"/>
</g>
</g>
<defs>
<filter id="filter0_b_24_1276" x="147.838" y="32.7549" width="250.449" height="236.822" filterUnits="userSpaceOnUse" color-interpolation-filters="sRGB">
<feFlood flood-opacity="0" result="BackgroundImageFix"/>
<feGaussianBlur in="BackgroundImageFix" stdDeviation="9.11926"/>
<feComposite in2="SourceAlpha" operator="in" result="effect1_backgroundBlur_24_1276"/>
<feBlend mode="normal" in="SourceGraphic" in2="effect1_backgroundBlur_24_1276" result="shape"/>
</filter>
<radialGradient id="paint0_radial_24_1276" cx="0" cy="0" r="1" gradientUnits="userSpaceOnUse" gradientTransform="translate(224.099 44.6267) rotate(20.0118) scale(176.797 172.629)">
<stop stop-color="#F065E2"/>
<stop offset="1" stop-color="#3748FA"/>
</radialGradient>
<linearGradient id="paint1_linear_24_1276" x1="157.924" y1="84.1712" x2="245.734" y2="204.796" gradientUnits="userSpaceOnUse">
<stop stop-color="white" stop-opacity="0.29535"/>
<stop offset="1" stop-color="white" stop-opacity="0.01"/>
</linearGradient>
<radialGradient id="paint2_radial_24_1276" cx="0" cy="0" r="1" gradientUnits="userSpaceOnUse" gradientTransform="translate(207.451 60.3858) rotate(75.2385) scale(163.348 191.658)">
<stop stop-color="white" stop-opacity="0.801593"/>
<stop offset="1" stop-color="#5B72F6" stop-opacity="0.24907"/>
</radialGradient>
<radialGradient id="paint3_radial_24_1276" cx="0" cy="0" r="1" gradientUnits="userSpaceOnUse" gradientTransform="translate(210.683 66.1512) rotate(80.6838) scale(96.7909 178.293)">
<stop stop-color="white" stop-opacity="0.973411"/>
<stop offset="1" stop-color="white" stop-opacity="0.01"/>
</radialGradient>
</defs>
</svg>
