<svg width="832" height="153" viewBox="0 0 832 153" fill="none" xmlns="http://www.w3.org/2000/svg">
<g id="Frame 27087">
<g id="Group 3">
<path id="&#230;&#164;&#173;&#229;&#156;&#134;&#229;&#189;&#162;" d="M826.992 101.693C840.862 153.455 810.144 206.66 758.382 220.529C706.62 234.399 653.416 203.681 639.546 151.919C625.677 100.158 656.394 46.9528 708.156 33.0833C759.918 19.2138 813.123 49.9315 826.992 101.693Z" fill="url(#paint0_radial_24_1287)" stroke="url(#paint1_linear_24_1287)" stroke-width="1.52238"/>
<ellipse id="&#230;&#164;&#173;&#229;&#156;&#134;&#229;&#189;&#162;&#229;&#164;&#135;&#228;&#187;&#189; 4" cx="733.271" cy="126.806" rx="42.2878" ry="42.2878" transform="rotate(-15 733.271 126.806)" fill="white"/>
<g id="&#229;&#189;&#162;&#231;&#138;&#182;&#231;&#187;&#147;&#229;&#144;&#136;" filter="url(#filter0_b_24_1287)">
<mask id="path-3-inside-1_24_1287" fill="white">
<path fill-rule="evenodd" clip-rule="evenodd" d="M680.45 112.462C670.76 132.508 677.82 156.793 697.116 167.934C697.151 167.953 697.185 167.973 697.219 167.993L719.414 129.551L682.791 108.407L680.45 112.462Z"/>
</mask>
<path fill-rule="evenodd" clip-rule="evenodd" d="M680.45 112.462C670.76 132.508 677.82 156.793 697.116 167.934C697.151 167.953 697.185 167.973 697.219 167.993L719.414 129.551L682.791 108.407L680.45 112.462Z" fill="#0091FF" fill-opacity="0.20807"/>
<path d="M680.45 112.462L679.132 111.701L679.104 111.749L679.079 111.8L680.45 112.462ZM697.219 167.993L696.462 169.313L697.779 170.069L698.538 168.754L697.219 167.993ZM719.414 129.551L720.732 130.312L721.493 128.994L720.175 128.233L719.414 129.551ZM682.791 108.407L683.552 107.089L682.234 106.328L681.473 107.646L682.791 108.407ZM697.878 166.615C679.294 155.886 672.467 132.476 681.821 113.125L679.079 111.8C669.054 132.541 676.346 157.7 696.355 169.252L697.878 166.615ZM697.977 166.672C697.944 166.653 697.911 166.634 697.878 166.615L696.355 169.252C696.391 169.273 696.426 169.293 696.462 169.313L697.977 166.672ZM718.095 128.79L695.901 167.232L698.538 168.754L720.732 130.312L718.095 128.79ZM682.03 109.726L718.652 130.87L720.175 128.233L683.552 107.089L682.03 109.726ZM681.769 113.223L684.11 109.168L681.473 107.646L679.132 111.701L681.769 113.223Z" fill="url(#paint2_radial_24_1287)" mask="url(#path-3-inside-1_24_1287)"/>
</g>
<g id="&#232;&#183;&#175;&#229;&#190;&#132;" filter="url(#filter1_b_24_1287)">
<path fill-rule="evenodd" clip-rule="evenodd" d="M796.408 15.967C812.09 25.4838 822.883 36.3092 827.735 41.6728C829.398 43.5123 829.107 46.3108 827.189 47.8839L731.939 126.02L751.312 4.54127C751.695 2.13828 753.882 0.479678 756.276 0.915875C763.842 2.29449 780.307 6.19632 796.408 15.967Z" fill="url(#paint3_radial_24_1287)"/>
<path d="M796.013 16.6178C811.613 26.0846 822.35 36.8547 827.17 42.1835C828.524 43.6806 828.309 45.9808 826.707 47.2954L733.006 124.16L752.064 4.66115C752.385 2.65053 754.194 1.31029 756.139 1.66474C763.659 3.03483 780.023 6.91424 796.013 16.6178Z" stroke="url(#paint4_radial_24_1287)" stroke-width="1.52238"/>
</g>
</g>
<g id="Group 4" opacity="0.6" filter="url(#filter2_f_24_1287)">
<path id="&#230;&#164;&#173;&#229;&#156;&#134;&#229;&#189;&#162;_2" d="M613.3 76.8423C620.835 104.964 604.146 133.87 576.024 141.406C547.902 148.941 518.996 132.252 511.461 104.13C503.925 76.0079 520.614 47.1019 548.736 39.5666C576.859 32.0313 605.765 48.7202 613.3 76.8423Z" fill="url(#paint5_radial_24_1287)" stroke="url(#paint6_linear_24_1287)" stroke-width="0.827108"/>
<ellipse id="&#230;&#164;&#173;&#229;&#156;&#134;&#229;&#189;&#162;&#229;&#164;&#135;&#228;&#187;&#189; 4_2" cx="562.38" cy="90.4859" rx="22.9749" ry="22.9749" transform="rotate(-15 562.38 90.4859)" fill="white"/>
<g id="&#229;&#189;&#162;&#231;&#138;&#182;&#231;&#187;&#147;&#229;&#144;&#136;_2" filter="url(#filter3_b_24_1287)">
<mask id="path-9-inside-2_24_1287" fill="white">
<path fill-rule="evenodd" clip-rule="evenodd" d="M533.687 82.6849C528.417 93.5776 532.252 106.776 542.738 112.83C542.756 112.841 542.775 112.852 542.793 112.862L554.851 91.9772L534.954 80.4898L533.687 82.6849Z"/>
</mask>
<path fill-rule="evenodd" clip-rule="evenodd" d="M533.687 82.6849C528.417 93.5776 532.252 106.776 542.738 112.83C542.756 112.841 542.775 112.852 542.793 112.862L554.851 91.9772L534.954 80.4898L533.687 82.6849Z" fill="#0091FF" fill-opacity="0.20807"/>
<path d="M533.687 82.6849L532.971 82.2713L532.956 82.2975L532.942 82.3247L533.687 82.6849ZM542.793 112.862L542.382 113.58L543.097 113.99L543.509 113.276L542.793 112.862ZM554.851 91.9772L555.567 92.3908L555.981 91.6745L555.265 91.2609L554.851 91.9772ZM534.954 80.4898L535.368 79.7735L534.652 79.36L534.238 80.0763L534.954 80.4898ZM543.151 112.114C533.053 106.284 529.344 93.5604 534.431 83.0451L532.942 82.3247C527.49 93.5948 531.451 107.269 542.324 113.547L543.151 112.114ZM543.205 112.145C543.187 112.135 543.169 112.124 543.151 112.114L542.324 113.547C542.343 113.558 542.362 113.569 542.382 113.58L543.205 112.145ZM554.135 91.5637L542.077 112.449L543.509 113.276L555.567 92.3908L554.135 91.5637ZM534.541 81.2061L554.438 92.6935L555.265 91.2609L535.368 79.7735L534.541 81.2061ZM534.403 83.0985L535.671 80.9034L534.238 80.0763L532.971 82.2713L534.403 83.0985Z" fill="url(#paint7_radial_24_1287)" mask="url(#path-9-inside-2_24_1287)"/>
</g>
<g id="&#232;&#183;&#175;&#229;&#190;&#132;_2" filter="url(#filter4_b_24_1287)">
<path fill-rule="evenodd" clip-rule="evenodd" d="M596.683 30.2674C605.203 35.4379 611.067 41.3193 613.703 44.2334C614.607 45.2327 614.449 46.7532 613.407 47.6078L561.658 90.059L572.183 24.0599C572.391 22.7543 573.579 21.8532 574.88 22.0902C578.99 22.8392 587.936 24.959 596.683 30.2674Z" fill="url(#paint8_radial_24_1287)"/>
<path d="M596.469 30.621C604.944 35.7643 610.778 41.6157 613.396 44.5108C614.132 45.3242 614.015 46.5739 613.145 47.2881L562.237 89.0483L572.591 24.125C572.766 23.0326 573.749 22.3045 574.806 22.497C578.891 23.2414 587.781 25.3491 596.469 30.621Z" stroke="url(#paint9_radial_24_1287)" stroke-width="0.827108"/>
</g>
</g>
<g id="Group 5" opacity="0.4" filter="url(#filter5_f_24_1287)">
<path id="&#230;&#164;&#173;&#229;&#156;&#134;&#229;&#189;&#162;_3" d="M465.174 67.3288C467.914 77.5535 461.846 88.0632 451.621 90.8029C441.396 93.5426 430.887 87.4748 428.147 77.2501C425.407 67.0254 431.475 56.5157 441.7 53.776C451.925 51.0363 462.434 57.1041 465.174 67.3288Z" fill="url(#paint10_radial_24_1287)" stroke="url(#paint11_linear_24_1287)" stroke-width="0.300722"/>
<ellipse id="&#230;&#164;&#173;&#229;&#156;&#134;&#229;&#189;&#162;&#229;&#164;&#135;&#228;&#187;&#189; 4_3" cx="446.661" cy="72.2894" rx="8.35326" ry="8.35326" transform="rotate(-15 446.661 72.2894)" fill="white"/>
<g id="&#229;&#189;&#162;&#231;&#138;&#182;&#231;&#187;&#147;&#229;&#144;&#136;_3" filter="url(#filter6_b_24_1287)">
<mask id="path-15-inside-3_24_1287" fill="white">
<path fill-rule="evenodd" clip-rule="evenodd" d="M436.231 69.4489C434.311 73.4101 435.705 78.2116 439.519 80.4135C439.526 80.4174 439.532 80.4212 439.539 80.4249L443.923 72.8316L436.689 68.655L436.231 69.4489Z"/>
</mask>
<path fill-rule="evenodd" clip-rule="evenodd" d="M436.231 69.4489C434.311 73.4101 435.705 78.2116 439.519 80.4135C439.526 80.4174 439.532 80.4212 439.539 80.4249L443.923 72.8316L436.689 68.655L436.231 69.4489Z" fill="#0091FF" fill-opacity="0.20807"/>
<path d="M436.231 69.4489L435.97 69.2985L435.965 69.308L435.96 69.3178L436.231 69.4489ZM439.539 80.4249L439.389 80.6858L439.65 80.835L439.8 80.5753L439.539 80.4249ZM443.923 72.8316L444.184 72.982L444.334 72.7215L444.073 72.5712L443.923 72.8316ZM436.689 68.655L436.839 68.3945L436.579 68.2442L436.429 68.5046L436.689 68.655ZM439.67 80.1531C435.997 78.0325 434.649 73.404 436.501 69.58L435.96 69.3178C433.974 73.4162 435.414 78.3907 439.369 80.674L439.67 80.1531ZM439.689 80.1641C439.682 80.1604 439.676 80.1568 439.67 80.1531L439.369 80.674C439.376 80.6779 439.383 80.6819 439.389 80.6858L439.689 80.1641ZM443.663 72.6812L439.279 80.2746L439.8 80.5753L444.184 72.982L443.663 72.6812ZM436.539 68.9154L443.773 73.092L444.073 72.5712L436.839 68.3945L436.539 68.9154ZM436.491 69.5993L436.949 68.8053L436.429 68.5046L435.97 69.2985L436.491 69.5993Z" fill="url(#paint12_radial_24_1287)" mask="url(#path-15-inside-3_24_1287)"/>
</g>
<g id="&#232;&#183;&#175;&#229;&#190;&#132;_3" filter="url(#filter7_b_24_1287)">
<path fill-rule="evenodd" clip-rule="evenodd" d="M459.132 50.395C462.23 52.2749 464.362 54.4133 465.32 55.4728C465.649 55.8361 465.591 56.3889 465.213 56.6997L446.397 72.1342L450.224 48.138C450.3 47.6634 450.732 47.3357 451.205 47.4219C452.699 47.6942 455.952 48.465 459.132 50.395Z" fill="url(#paint13_radial_24_1287)"/>
<path d="M459.054 50.5235C462.136 52.3936 464.257 54.521 465.209 55.5736C465.476 55.8694 465.434 56.3237 465.117 56.5834L446.608 71.7667L450.373 48.1617C450.436 47.7645 450.794 47.4998 451.178 47.5698C452.663 47.8405 455.896 48.6068 459.054 50.5235Z" stroke="url(#paint14_radial_24_1287)" stroke-width="0.300722"/>
</g>
</g>
<g id="Group 6" opacity="0.4" filter="url(#filter8_f_24_1287)">
<path id="&#230;&#164;&#173;&#229;&#156;&#134;&#229;&#189;&#162;_4" d="M409.986 133.711C413.475 146.733 405.747 160.118 392.725 163.608C379.703 167.097 366.318 159.369 362.829 146.347C359.34 133.325 367.068 119.94 380.09 116.451C393.112 112.961 406.497 120.689 409.986 133.711Z" fill="url(#paint15_radial_24_1287)" stroke="url(#paint16_linear_24_1287)" stroke-width="0.382996"/>
<ellipse id="&#230;&#164;&#173;&#229;&#156;&#134;&#229;&#189;&#162;&#229;&#164;&#135;&#228;&#187;&#189; 4_4" cx="386.407" cy="140.029" rx="10.6386" ry="10.6386" transform="rotate(-15 386.407 140.029)" fill="white"/>
<g id="&#229;&#189;&#162;&#231;&#138;&#182;&#231;&#187;&#147;&#229;&#144;&#136;_4" filter="url(#filter9_b_24_1287)">
<mask id="path-21-inside-4_24_1287" fill="white">
<path fill-rule="evenodd" clip-rule="evenodd" d="M373.12 136.418C370.68 141.462 372.456 147.573 377.311 150.376C377.32 150.381 377.329 150.386 377.337 150.39L382.921 140.719L373.707 135.4L373.12 136.418Z"/>
</mask>
<path fill-rule="evenodd" clip-rule="evenodd" d="M373.12 136.418C370.68 141.462 372.456 147.573 377.311 150.376C377.32 150.381 377.329 150.386 377.337 150.39L382.921 140.719L373.707 135.4L373.12 136.418Z" fill="#0091FF" fill-opacity="0.20807"/>
<path d="M373.12 136.418L372.788 136.227L372.781 136.239L372.775 136.252L373.12 136.418ZM377.337 150.39L377.147 150.723L377.478 150.913L377.669 150.582L377.337 150.39ZM382.921 140.719L383.252 140.911L383.444 140.579L383.112 140.388L382.921 140.719ZM373.707 135.4L373.899 135.069L373.567 134.877L373.376 135.209L373.707 135.4ZM377.503 150.044C372.827 147.344 371.11 141.454 373.464 136.585L372.775 136.252C370.251 141.47 372.086 147.801 377.12 150.707L377.503 150.044ZM377.528 150.058C377.52 150.054 377.511 150.049 377.503 150.044L377.12 150.707C377.129 150.712 377.138 150.718 377.147 150.723L377.528 150.058ZM382.589 140.528L377.006 150.199L377.669 150.582L383.252 140.911L382.589 140.528ZM373.516 135.732L382.729 141.051L383.112 140.388L373.899 135.069L373.516 135.732ZM373.451 136.61L374.039 135.592L373.376 135.209L372.788 136.227L373.451 136.61Z" fill="url(#paint17_radial_24_1287)" mask="url(#path-21-inside-4_24_1287)"/>
</g>
<g id="&#232;&#183;&#175;&#229;&#190;&#132;_4" filter="url(#filter10_b_24_1287)">
<path fill-rule="evenodd" clip-rule="evenodd" d="M402.291 112.145C406.236 114.539 408.951 117.262 410.172 118.611C410.591 119.074 410.517 119.778 410.035 120.174L386.072 139.831L390.946 109.27C391.042 108.666 391.592 108.248 392.195 108.358C394.098 108.705 398.24 109.686 402.291 112.145Z" fill="url(#paint18_radial_24_1287)"/>
<path d="M402.192 112.308C406.116 114.69 408.817 117.399 410.03 118.74C410.371 119.117 410.317 119.695 409.913 120.026L386.341 139.363L391.135 109.3C391.216 108.794 391.671 108.457 392.16 108.546C394.052 108.891 398.169 109.867 402.192 112.308Z" stroke="url(#paint19_radial_24_1287)" stroke-width="0.382996"/>
</g>
</g>
</g>
<defs>
<filter id="filter0_b_24_1287" x="663.715" y="95.9924" width="68.1133" height="84.4153" filterUnits="userSpaceOnUse" color-interpolation-filters="sRGB">
<feFlood flood-opacity="0" result="BackgroundImageFix"/>
<feGaussianBlur in="BackgroundImageFix" stdDeviation="6.20741"/>
<feComposite in2="SourceAlpha" operator="in" result="effect1_backgroundBlur_24_1287"/>
<feBlend mode="normal" in="SourceGraphic" in2="effect1_backgroundBlur_24_1287" result="shape"/>
</filter>
<filter id="filter1_b_24_1287" x="711.248" y="-19.8452" width="138.267" height="166.557" filterUnits="userSpaceOnUse" color-interpolation-filters="sRGB">
<feFlood flood-opacity="0" result="BackgroundImageFix"/>
<feGaussianBlur in="BackgroundImageFix" stdDeviation="10.3457"/>
<feComposite in2="SourceAlpha" operator="in" result="effect1_backgroundBlur_24_1287"/>
<feBlend mode="normal" in="SourceGraphic" in2="effect1_backgroundBlur_24_1287" result="shape"/>
</filter>
<filter id="filter2_f_24_1287" x="496.73" y="9.54428" width="131.301" height="146.592" filterUnits="userSpaceOnUse" color-interpolation-filters="sRGB">
<feFlood flood-opacity="0" result="BackgroundImageFix"/>
<feBlend mode="normal" in="SourceGraphic" in2="BackgroundImageFix" result="shape"/>
<feGaussianBlur stdDeviation="6.25401" result="effect1_foregroundBlur_24_1287"/>
</filter>
<filter id="filter3_b_24_1287" x="524.591" y="73.7449" width="37.0051" height="45.8623" filterUnits="userSpaceOnUse" color-interpolation-filters="sRGB">
<feFlood flood-opacity="0" result="BackgroundImageFix"/>
<feGaussianBlur in="BackgroundImageFix" stdDeviation="3.37247"/>
<feComposite in2="SourceAlpha" operator="in" result="effect1_backgroundBlur_24_1287"/>
<feBlend mode="normal" in="SourceGraphic" in2="effect1_backgroundBlur_24_1287" result="shape"/>
</filter>
<filter id="filter4_b_24_1287" x="550.416" y="10.8107" width="75.1203" height="90.4898" filterUnits="userSpaceOnUse" color-interpolation-filters="sRGB">
<feFlood flood-opacity="0" result="BackgroundImageFix"/>
<feGaussianBlur in="BackgroundImageFix" stdDeviation="5.62078"/>
<feComposite in2="SourceAlpha" operator="in" result="effect1_backgroundBlur_24_1287"/>
<feBlend mode="normal" in="SourceGraphic" in2="effect1_backgroundBlur_24_1287" result="shape"/>
</filter>
<filter id="filter5_f_24_1287" x="414.697" y="34.7661" width="63.9276" height="69.4871" filterUnits="userSpaceOnUse" color-interpolation-filters="sRGB">
<feFlood flood-opacity="0" result="BackgroundImageFix"/>
<feBlend mode="normal" in="SourceGraphic" in2="BackgroundImageFix" result="shape"/>
<feGaussianBlur stdDeviation="6.32103" result="effect1_foregroundBlur_24_1287"/>
</filter>
<filter id="filter6_b_24_1287" x="432.921" y="66.2026" width="13.454" height="16.6746" filterUnits="userSpaceOnUse" color-interpolation-filters="sRGB">
<feFlood flood-opacity="0" result="BackgroundImageFix"/>
<feGaussianBlur in="BackgroundImageFix" stdDeviation="1.22617"/>
<feComposite in2="SourceAlpha" operator="in" result="effect1_backgroundBlur_24_1287"/>
<feBlend mode="normal" in="SourceGraphic" in2="effect1_backgroundBlur_24_1287" result="shape"/>
</filter>
<filter id="filter7_b_24_1287" x="442.31" y="43.3209" width="27.3124" height="32.9005" filterUnits="userSpaceOnUse" color-interpolation-filters="sRGB">
<feFlood flood-opacity="0" result="BackgroundImageFix"/>
<feGaussianBlur in="BackgroundImageFix" stdDeviation="2.04362"/>
<feComposite in2="SourceAlpha" operator="in" result="effect1_backgroundBlur_24_1287"/>
<feBlend mode="normal" in="SourceGraphic" in2="effect1_backgroundBlur_24_1287" result="shape"/>
</filter>
<filter id="filter8_f_24_1287" x="345.699" y="92.2397" width="81.4172" height="88.498" filterUnits="userSpaceOnUse" color-interpolation-filters="sRGB">
<feFlood flood-opacity="0" result="BackgroundImageFix"/>
<feBlend mode="normal" in="SourceGraphic" in2="BackgroundImageFix" result="shape"/>
<feGaussianBlur stdDeviation="8.05038" result="effect1_foregroundBlur_24_1287"/>
</filter>
<filter id="filter9_b_24_1287" x="368.908" y="132.277" width="17.1356" height="21.2368" filterUnits="userSpaceOnUse" color-interpolation-filters="sRGB">
<feFlood flood-opacity="0" result="BackgroundImageFix"/>
<feGaussianBlur in="BackgroundImageFix" stdDeviation="1.56163"/>
<feComposite in2="SourceAlpha" operator="in" result="effect1_backgroundBlur_24_1287"/>
<feBlend mode="normal" in="SourceGraphic" in2="effect1_backgroundBlur_24_1287" result="shape"/>
</filter>
<filter id="filter10_b_24_1287" x="380.867" y="103.135" width="34.7847" height="41.9017" filterUnits="userSpaceOnUse" color-interpolation-filters="sRGB">
<feFlood flood-opacity="0" result="BackgroundImageFix"/>
<feGaussianBlur in="BackgroundImageFix" stdDeviation="2.60272"/>
<feComposite in2="SourceAlpha" operator="in" result="effect1_backgroundBlur_24_1287"/>
<feBlend mode="normal" in="SourceGraphic" in2="effect1_backgroundBlur_24_1287" result="shape"/>
</filter>
<radialGradient id="paint0_radial_24_1287" cx="0" cy="0" r="1" gradientUnits="userSpaceOnUse" gradientTransform="translate(707.959 32.348) rotate(75) scale(141.327 140.72)">
<stop stop-color="#46FF7E"/>
<stop offset="1" stop-color="#2D62FF"/>
</radialGradient>
<linearGradient id="paint1_linear_24_1287" x1="593.716" y1="117.324" x2="709.852" y2="201.075" gradientUnits="userSpaceOnUse">
<stop stop-color="white" stop-opacity="0.600574"/>
<stop offset="1" stop-color="white" stop-opacity="0.01"/>
</linearGradient>
<radialGradient id="paint2_radial_24_1287" cx="0" cy="0" r="1" gradientUnits="userSpaceOnUse" gradientTransform="translate(696.87 111.737) rotate(129.491) scale(39.2708 35.9083)">
<stop stop-color="white"/>
<stop offset="1" stop-color="white" stop-opacity="0.01"/>
</radialGradient>
<radialGradient id="paint3_radial_24_1287" cx="0" cy="0" r="1" gradientUnits="userSpaceOnUse" gradientTransform="translate(756.702 18.5791) rotate(23.5254) scale(52.7103 122.823)">
<stop stop-color="#CCE4FF" stop-opacity="0.849615"/>
<stop offset="1" stop-color="#087AFF" stop-opacity="0.369052"/>
</radialGradient>
<radialGradient id="paint4_radial_24_1287" cx="0" cy="0" r="1" gradientUnits="userSpaceOnUse" gradientTransform="translate(760.774 8.97467) rotate(38.9614) scale(73.8933 70.7278)">
<stop stop-color="white"/>
<stop offset="1" stop-color="white" stop-opacity="0.01"/>
</radialGradient>
<radialGradient id="paint5_radial_24_1287" cx="0" cy="0" r="1" gradientUnits="userSpaceOnUse" gradientTransform="translate(548.629 39.1671) rotate(75) scale(76.7827 76.4531)">
<stop stop-color="#46FF7E"/>
<stop offset="1" stop-color="#2D62FF"/>
</radialGradient>
<linearGradient id="paint6_linear_24_1287" x1="486.561" y1="85.3344" x2="549.658" y2="130.836" gradientUnits="userSpaceOnUse">
<stop stop-color="white" stop-opacity="0.600574"/>
<stop offset="1" stop-color="white" stop-opacity="0.01"/>
</linearGradient>
<radialGradient id="paint7_radial_24_1287" cx="0" cy="0" r="1" gradientUnits="userSpaceOnUse" gradientTransform="translate(542.603 82.2988) rotate(129.492) scale(21.3353 19.5089)">
<stop stop-color="white"/>
<stop offset="1" stop-color="white" stop-opacity="0.01"/>
</radialGradient>
<radialGradient id="paint8_radial_24_1287" cx="0" cy="0" r="1" gradientUnits="userSpaceOnUse" gradientTransform="translate(575.111 31.6866) rotate(23.5254) scale(28.6374 66.7296)">
<stop stop-color="#CCE4FF" stop-opacity="0.849615"/>
<stop offset="1" stop-color="#087AFF" stop-opacity="0.369052"/>
</radialGradient>
<radialGradient id="paint9_radial_24_1287" cx="0" cy="0" r="1" gradientUnits="userSpaceOnUse" gradientTransform="translate(577.323 26.4685) rotate(38.9614) scale(40.1461 38.4263)">
<stop stop-color="white"/>
<stop offset="1" stop-color="white" stop-opacity="0.01"/>
</radialGradient>
<radialGradient id="paint10_radial_24_1287" cx="0" cy="0" r="1" gradientUnits="userSpaceOnUse" gradientTransform="translate(441.661 53.6307) rotate(75) scale(27.9169 27.797)">
<stop stop-color="#46FF7E"/>
<stop offset="1" stop-color="#2D62FF"/>
</radialGradient>
<linearGradient id="paint11_linear_24_1287" x1="419.094" y1="70.4163" x2="442.035" y2="86.9601" gradientUnits="userSpaceOnUse">
<stop stop-color="white" stop-opacity="0.600574"/>
<stop offset="1" stop-color="white" stop-opacity="0.01"/>
</linearGradient>
<radialGradient id="paint12_radial_24_1287" cx="0" cy="0" r="1" gradientUnits="userSpaceOnUse" gradientTransform="translate(439.47 69.3127) rotate(129.492) scale(7.75717 7.0931)">
<stop stop-color="white"/>
<stop offset="1" stop-color="white" stop-opacity="0.01"/>
</radialGradient>
<radialGradient id="paint13_radial_24_1287" cx="0" cy="0" r="1" gradientUnits="userSpaceOnUse" gradientTransform="translate(451.289 50.911) rotate(23.5254) scale(10.4121 24.2617)">
<stop stop-color="#CCE4FF" stop-opacity="0.849615"/>
<stop offset="1" stop-color="#087AFF" stop-opacity="0.369052"/>
</radialGradient>
<radialGradient id="paint14_radial_24_1287" cx="0" cy="0" r="1" gradientUnits="userSpaceOnUse" gradientTransform="translate(452.093 49.0138) rotate(38.9614) scale(14.5964 13.9711)">
<stop stop-color="white"/>
<stop offset="1" stop-color="white" stop-opacity="0.01"/>
</radialGradient>
<radialGradient id="paint15_radial_24_1287" cx="0" cy="0" r="1" gradientUnits="userSpaceOnUse" gradientTransform="translate(380.04 116.266) rotate(75) scale(35.5545 35.4019)">
<stop stop-color="#46FF7E"/>
<stop offset="1" stop-color="#2D62FF"/>
</radialGradient>
<linearGradient id="paint16_linear_24_1287" x1="351.299" y1="137.644" x2="380.516" y2="158.713" gradientUnits="userSpaceOnUse">
<stop stop-color="white" stop-opacity="0.600574"/>
<stop offset="1" stop-color="white" stop-opacity="0.01"/>
</linearGradient>
<radialGradient id="paint17_radial_24_1287" cx="0" cy="0" r="1" gradientUnits="userSpaceOnUse" gradientTransform="translate(377.249 136.238) rotate(129.492) scale(9.87942 9.03367)">
<stop stop-color="white"/>
<stop offset="1" stop-color="white" stop-opacity="0.01"/>
</radialGradient>
<radialGradient id="paint18_radial_24_1287" cx="0" cy="0" r="1" gradientUnits="userSpaceOnUse" gradientTransform="translate(392.302 112.802) rotate(23.5254) scale(13.2606 30.8994)">
<stop stop-color="#CCE4FF" stop-opacity="0.849615"/>
<stop offset="1" stop-color="#087AFF" stop-opacity="0.369052"/>
</radialGradient>
<radialGradient id="paint19_radial_24_1287" cx="0" cy="0" r="1" gradientUnits="userSpaceOnUse" gradientTransform="translate(393.326 110.385) rotate(38.9614) scale(18.5898 17.7934)">
<stop stop-color="white"/>
<stop offset="1" stop-color="white" stop-opacity="0.01"/>
</radialGradient>
</defs>
</svg>
